<svg xmlns="http://www.w3.org/2000/svg" width="1111" height="391" viewBox="0 0 1111 391"><defs><style>.a,.c,.k{fill:none;}.a,.b,.c{stroke:#22318a;}.a,.b{stroke-width:3px;}.b,.d,.e,.f,.g,.h,.i{fill:#22318a;}.c{stroke-width:2px;}.d{font-size:76px;}.d,.f,.g,.h,.i{font-family:TypoRoundLightDemo, Typo Round Demo;}.e{font-size:26px;font-family:TypoRoundThinDemo, Typo Round Demo;}.f{font-size:38px;}.g{font-size:37px;}.h{font-size:39px;}.i{font-size:62px;}.j{stroke:none;}</style></defs><g transform="translate(-14995.562 -19143.783)"><g class="a" transform="translate(14995.562 19325.783)"><ellipse class="j" cx="13.5" cy="14" rx="13.5" ry="14"/><ellipse class="k" cx="13.5" cy="14" rx="12" ry="12.5"/></g><g class="a" transform="translate(15093.562 19325.783)"><circle class="j" cx="14" cy="14" r="14"/><circle class="k" cx="14" cy="14" r="12.5"/></g><g class="b" transform="translate(15232.562 19325.783)"><ellipse class="j" cx="14.5" cy="14" rx="14.5" ry="14"/><ellipse class="k" cx="14.5" cy="14" rx="13" ry="12.5"/></g><g class="a" transform="translate(15355.562 19325.783)"><circle class="j" cx="14" cy="14" r="14"/><circle class="k" cx="14" cy="14" r="12.5"/></g><g class="a" transform="translate(15475.562 19325.783)"><ellipse class="j" cx="13.5" cy="14" rx="13.5" ry="14"/><ellipse class="k" cx="13.5" cy="14" rx="12" ry="12.5"/></g><g class="a" transform="translate(15594.562 19325.783)"><circle class="j" cx="14" cy="14" r="14"/><circle class="k" cx="14" cy="14" r="12.5"/></g><g class="a" transform="translate(15713.562 19325.783)"><circle class="j" cx="14" cy="14" r="14"/><circle class="k" cx="14" cy="14" r="12.5"/></g><g class="a" transform="translate(15833.562 19325.783)"><ellipse class="j" cx="13" cy="14" rx="13" ry="14"/><ellipse class="k" cx="13" cy="14" rx="11.5" ry="12.5"/></g><g class="b" transform="translate(15974.562 19325.783)"><circle class="j" cx="14" cy="14" r="14"/><circle class="k" cx="14" cy="14" r="12.5"/></g><g class="a" transform="translate(16073.562 19325.783)"><ellipse class="j" cx="13" cy="14" rx="13" ry="14"/><ellipse class="k" cx="13" cy="14" rx="11.5" ry="12.5"/></g><line class="c" y1="104.573" transform="translate(15247.895 19239.832)"/><line class="c" y1="104.573" transform="translate(15988.169 19233.803)"/><g transform="translate(15876.698 19143.783)"><text class="d" transform="translate(-0.137 69)"><tspan x="0" y="0">Pyura</tspan></text><text class="e" transform="translate(196.863 68)"><tspan x="0" y="0">air</tspan></text></g><text class="f" transform="translate(15048.562 19222.783)"><tspan x="0" y="0">Regular face mask</tspan></text><text class="g" transform="translate(15002.562 19396.783)"><tspan x="0" y="0">1</tspan></text><text class="h" transform="translate(16073.562 19397.783)"><tspan x="0" y="0">10</tspan></text><text class="i" transform="translate(15259.562 19519.783)"><tspan x="0" y="0">Air Filtration Efficiency</tspan></text></g></svg>